<?xml version="1.0" encoding="UTF-8" standalone="no"?>
<!-- Created with Inkscape (http://www.inkscape.org/) -->

<svg
   width="1080"
   height="297"
   viewBox="0 0 1080 297"
   version="1.1"
   id="svg1"
   sodipodi:docname="LogoMh.svg"
   inkscape:version="1.3.2 (091e20e, 2023-11-25, custom)"
   xml:space="preserve"
   inkscape:export-filename="LogoMh.png"
   inkscape:export-xdpi="96"
   inkscape:export-ydpi="96"
   xmlns:inkscape="http://www.inkscape.org/namespaces/inkscape"
   xmlns:sodipodi="http://sodipodi.sourceforge.net/DTD/sodipodi-0.dtd"
   xmlns="http://www.w3.org/2000/svg"
   xmlns:svg="http://www.w3.org/2000/svg"><sodipodi:namedview
     id="namedview1"
     pagecolor="#ffffff"
     bordercolor="#000000"
     borderopacity="0.25"
     inkscape:showpageshadow="2"
     inkscape:pageopacity="0.0"
     inkscape:pagecheckerboard="0"
     inkscape:deskcolor="#d1d1d1"
     inkscape:document-units="px"
     showguides="false"
     inkscape:zoom="0.35787037"
     inkscape:cx="273.84217"
     inkscape:cy="-71.254851"
     inkscape:window-width="1366"
     inkscape:window-height="705"
     inkscape:window-x="1358"
     inkscape:window-y="-8"
     inkscape:window-maximized="1"
     inkscape:current-layer="layer1" /><defs
     id="defs1" /><g
     inkscape:label="Camada 1"
     inkscape:groupmode="layer"
     id="layer1"
     style="display:inline;opacity:1;fill:#b4adff;fill-opacity:1"
     transform="matrix(2.157732,0,0,2.157732,-625.74228,-1198.6422)"><path
       id="path17"
       style="font-stretch:condensed;font-size:50.647px;line-height:0;font-family:Bahnschrift;-inkscape-font-specification:'Bahnschrift Condensed';letter-spacing:-1.70392px;opacity:1;fill:#ffffff;fill-opacity:1;stroke-width:15.9518"
       d="M 290 555.51023 L 290 691.4123 L 306.91772 691.4123 L 306.91772 603.08261 L 328.04088 669.16672 L 339.44518 669.16672 L 361.22279 599.56329 L 361.22279 691.4123 L 377.48607 691.4123 L 377.48607 555.51023 L 361.87723 555.51023 L 333.74258 640.84651 L 306.26328 555.51023 L 290 555.51023 z M 624.68573 555.51023 L 584.9223 674.58871 L 554.45682 674.58871 L 586.79692 609.62702 L 586.79692 594.39293 L 536.13699 594.39293 L 536.13699 611.21741 L 568.38475 611.21741 L 534.82811 675.80346 L 534.82811 691.4123 L 579.30478 691.4123 L 589.32054 691.4123 L 602.4845 691.4123 L 625.2406 623.26801 C 626.23919 620.28018 627.61934 618.00871 629.38449 616.45204 C 631.17172 614.83194 633.31245 614.01984 635.8049 614.01984 C 638.29738 614.01984 639.89616 614.83194 640.60142 616.45204 C 641.32746 618.00981 641.17104 620.34611 640.13073 623.46172 L 617.4398 691.4123 L 640.61952 691.4123 L 665.36882 617.29114 C 668.03214 609.31526 668.37872 603.24215 666.40796 599.06725 C 664.52031 594.83006 660.5855 592.7093 654.60357 592.7093 C 650.17945 592.7093 645.53781 594.29896 640.67565 597.47686 C 637.08321 599.85534 633.73939 603.05535 630.64631 607.07443 L 647.86545 555.51023 L 624.68573 555.51023 z M 696.19727 555.51023 L 688.51957 578.50258 L 711.69929 578.50258 L 719.37699 555.51023 L 696.19727 555.51023 z M 729.57469 555.51023 L 692.77752 665.70985 C 690.0518 673.87271 690.0264 680.19587 692.70329 684.68232 C 695.38007 689.16876 700.45817 691.4123 707.93558 691.4123 L 716.44151 691.4123 L 724.05674 668.60641 L 721.15837 668.60641 C 719.2267 668.60641 717.88827 668.04621 717.14121 666.9246 C 716.47722 665.7407 716.49786 664.08829 717.20547 661.96967 L 752.75441 555.51023 L 729.57469 555.51023 z M 767.34402 555.51023 L 730.54685 665.70985 C 727.82113 673.87271 727.79756 680.19587 730.47443 684.68232 C 733.1512 689.16876 738.22754 691.4123 745.70491 691.4123 L 754.21084 691.4123 L 761.82607 668.60641 L 758.92951 668.60641 C 756.99784 668.60641 755.65763 668.04621 754.91054 666.9246 C 754.24659 665.7407 754.26911 664.08829 754.97662 661.96967 L 790.52555 555.51023 L 767.34402 555.51023 z M 505.93764 556.72497 L 505.93764 574.48451 L 523.69717 574.48451 L 523.69717 556.72497 L 505.93764 556.72497 z M 464.70873 566.16414 L 464.70873 594.39293 L 454.80249 594.39293 L 454.80249 611.21741 L 464.70873 611.21741 L 464.70873 666.17602 C 464.70873 674.4635 466.48572 680.8185 470.03749 685.24262 C 473.65157 689.66678 479.47731 691.87937 487.51551 691.87937 L 496.67589 691.87937 L 496.67589 675.05488 L 489.57207 675.05488 C 487.26654 675.05488 485.49044 674.27734 484.24421 672.71953 C 483.06028 671.16176 482.46916 668.98005 482.46916 666.17602 L 482.46916 611.21741 L 496.67589 611.21741 L 496.67589 594.39293 L 482.46916 594.39293 L 482.46916 566.16414 L 464.70873 566.16414 z M 419.46265 592.7093 C 410.48976 592.7093 403.5418 595.14017 398.61919 600.00049 C 393.69656 604.79848 391.23477 611.62097 391.23477 620.46921 L 408.52723 620.46921 C 408.52723 616.54356 409.4603 613.52339 411.32965 611.40478 C 413.19901 609.22389 415.75355 608.13348 418.99377 608.13348 C 422.73247 608.13348 425.63078 609.22389 427.68707 611.40478 C 429.80566 613.52339 430.86514 616.54356 430.86514 620.46921 L 430.86514 633.08825 L 419.27528 633.08825 C 409.30541 633.08825 401.79725 635.79831 396.75 641.21944 C 391.76506 646.57823 389.27144 654.71118 389.27144 665.61571 C 389.27144 674.71321 391.2658 681.53567 395.25375 686.08444 C 399.30401 690.57088 405.28526 692.81532 413.19884 692.81532 C 417.49835 692.81532 421.08327 692.03506 423.9496 690.47725 C 426.87826 688.85716 429.05904 686.42629 430.49221 683.18606 C 430.63364 682.87955 430.73653 682.53154 430.86514 682.21119 L 430.86514 691.4123 L 448.1567 691.4123 L 448.1567 620.46921 C 448.1567 611.62097 445.63306 604.79848 440.58581 600.00049 C 435.60087 595.14017 428.56016 592.7093 419.46265 592.7093 z M 505.93764 594.39293 L 505.93764 691.4123 L 523.69717 691.4123 L 523.69717 594.39293 L 505.93764 594.39293 z M 683.21253 594.39293 L 650.81632 691.4123 L 673.99785 691.4123 L 706.39497 594.39293 L 683.21253 594.39293 z M 419.36942 648.97679 L 430.86514 648.97679 L 430.86514 662.15704 C 430.86514 667.07968 429.77474 670.78739 427.59384 673.27983 C 425.41293 675.70999 422.10993 676.92406 417.68579 676.92406 C 413.88479 676.92406 411.01919 675.99099 409.08753 674.12164 C 407.21818 672.25228 406.2833 669.41675 406.2833 665.61571 C 406.2833 660.06998 407.3737 655.92575 409.5546 653.18404 C 411.73552 650.38001 415.00759 648.97679 419.36942 648.97679 z " /></g></svg>
