<?xml version="1.0" encoding="UTF-8" standalone="no"?>
<svg
   width="245"
   height="40"
   version="1.1"
   id="svg2"
   sodipodi:docname="mesapreta white.svg"
   inkscape:version="1.3.2 (091e20e, 2023-11-25, custom)"
   xml:space="preserve"
   inkscape:export-filename="..\..\..\Users\User\Desktop\mesapreta.png"
   inkscape:export-xdpi="1567.3469"
   inkscape:export-ydpi="1567.3469"
   xmlns:inkscape="http://www.inkscape.org/namespaces/inkscape"
   xmlns:sodipodi="http://sodipodi.sourceforge.net/DTD/sodipodi-0.dtd"
   xmlns="http://www.w3.org/2000/svg"
   xmlns:svg="http://www.w3.org/2000/svg"><defs
     id="defs2" /><sodipodi:namedview
     id="namedview2"
     pagecolor="#464646"
     bordercolor="#000000"
     borderopacity="0.25"
     inkscape:showpageshadow="2"
     inkscape:pageopacity="0.0"
     inkscape:pagecheckerboard="0"
     inkscape:deskcolor="#d1d1d1"
     inkscape:zoom="1"
     inkscape:cx="-17"
     inkscape:cy="-7.5"
     inkscape:window-width="1366"
     inkscape:window-height="705"
     inkscape:window-x="1358"
     inkscape:window-y="-8"
     inkscape:window-maximized="1"
     inkscape:current-layer="g3" /><g
     id="g3"
     transform="matrix(0.16576751,0,0,0.16576751,10.349182,-7.1535312)"
     inkscape:label="logo"><g
       id="g4"
       transform="matrix(1.3064969,0,0,1.3064969,-1037.1246,-50.205695)"
       style="fill:#ffffff"
       inkscape:label="logo icon"><circle
         style="fill:#333333;fill-opacity:0.994932;stroke-width:61.1182"
         id="path11"
         cy="163.8049"
         cx="854.04425"
         r="150.17482"
         transform="matrix(0.513724,0,0,0.513724,415.26293,79.654397)" /><path
         id="path1"
         style="display:inline;fill:#ffffff;fill-opacity:0.994932;stroke-width:3.35166"
         d="M 854.04095,30.000159 A 133.80423,133.80423 0 0 0 720.24274,163.8049 133.80423,133.80423 0 0 0 854.04095,297.60965 133.80423,133.80423 0 0 0 987.84571,163.8049 133.80423,133.80423 0 0 0 854.04095,30.000159 Z m 0,30.158442 A 103.64759,103.64759 0 0 1 957.69381,163.8049 103.64759,103.64759 0 0 1 946.93185,209.56956 l -29.78533,-51.59078 h -108.9684 v 80.58399 H 782.46456 A 103.64759,103.64759 0 0 1 750.39464,163.8049 103.64759,103.64759 0 0 1 854.04095,60.158601 Z"
         inkscape:label="black mesa"
         transform="matrix(0.513724,0,0,0.513724,415.26293,79.654397)" /><g
         id="g11"
         inkscape:label="circle"
         transform="matrix(0.51372398,0,0,0.51372398,415.26294,79.654397)"><path
           id="path8"
           style="fill:#15a507;fill-opacity:0.981265;stroke-width:31.3979"
           inkscape:label="verde"
           d="m 934.35854,21.262454 c 0.1999,0.68414 6.67283,22.504695 9.21665,33.665125 32.55548,26.78002 51.42006,66.722511 51.42206,108.877321 -0.0822,63.60442 -42.74089,119.27832 -104.13373,135.90502 4.77519,5.84823 12.75797,10.31815 35.70325,10.48823 56.60317,-27.23222 91.03303,-83.57999 91.12043,-146.39325 -0.023,-59.0191 -31.93411,-113.527728 -83.32866,-142.542446 z"
           transform="translate(1.3207326e-6)"
           sodipodi:nodetypes="ccccccc" /><path
           id="path7"
           style="fill:#006dfc;fill-opacity:1;stroke-width:31.3979"
           inkscape:label="azul"
           d="m 717.12695,131.42939 c -2.7159,0.59249 -20.36238,12.19357 -26.2882,25.18797 -5.7858,61.759 45.66835,170.87093 163.16719,170.86877 25.19516,-0.10113 50.02685,-6.0174 72.56083,-17.28798 -2.74814,-0.15497 -24.96552,-1.63324 -35.71226,-10.48823 -12.0043,3.31543 -24.39499,5.02574 -36.84857,5.0863 -77.86765,9.2e-4 -140.99223,-63.12366 -140.99131,-140.99132 0.11225,-10.8649 1.51614,-21.82474 4.11232,-32.37551 z"
           sodipodi:nodetypes="cccccccc" /><path
           id="path6"
           style="fill:#ff9702;fill-opacity:1;stroke-width:31.3979"
           inkscape:label="laranja"
           d="M 854.00594,0.12367785 C 765.69968,0.27392821 693.43267,70.445948 690.68544,158.70959 c 2.47592,-3.59605 15.55588,-22.12323 26.44151,-27.2802 14.98628,-63.522984 71.61235,-108.456733 136.87899,-108.615797 32.71665,0.0039 64.41367,11.38576 89.65943,32.195151 C 942.60732,43.450355 938.46844,26.83169 934.35854,21.262454 909.83837,7.4222039 882.16249,0.14136668 854.00594,0.12367785 Z"
           transform="translate(1.3207326e-6)"
           sodipodi:nodetypes="ccccccc" /></g></g><path
       d="m 310.56854,100.83444 h 16.3749 v 124.65494 h -17.06076 v -93.36261 l 0.85733,5.48688 -30.69221,70.55778 h -12.174 l -30.69221,-68.84314 0.85732,-7.20152 v 93.36261 H 220.97816 V 100.83444 h 16.37489 l 36.60775,82.30312 z m 72.71359,125.94093 q -12.34547,0 -21.09018,-4.62955 -8.7447,-4.62956 -13.37425,-13.54573 -4.54382,-9.0019 -4.54382,-21.6903 V 176.8791 q 0,-13.2028 4.37235,-22.54763 4.45809,-9.34484 12.85986,-14.23158 8.40178,-4.88675 20.23286,-4.88675 11.14521,0 19.03259,5.57261 7.88739,5.5726 12.00254,16.11769 4.20089,10.54509 4.20089,25.29107 v 5.8298 h -60.01269 v -14.06012 h 43.3806 v 0 q -0.77159,-10.88801 -5.65834,-16.88928 -4.80101,-6.08701 -12.94559,-6.08701 -9.94497,0 -15.43184,6.51567 -5.40114,6.51566 -5.40114,18.43247 v 11.31668 q 0,11.05948 5.8298,16.97502 5.82981,5.91554 16.54636,5.91554 5.31541,0 10.54509,-2.14331 5.22968,-2.14331 9.34483,-6.00127 v 0 l 11.48815,11.48814 v 0 q -6.6014,6.3442 -14.83171,9.85923 -8.23032,3.4293 -16.54636,3.4293 z m 79.91511,0 q -7.88739,0 -14.83171,-1.54319 -6.8586,-1.54318 -12.85987,-4.62955 -6.00126,-3.08637 -11.05948,-7.71592 v 0 l 10.37363,-12.77413 v 0 q 7.20152,5.48688 14.31731,8.23032 7.11579,2.74343 14.06012,2.74343 10.37362,0 15.51757,-3.1721 5.22967,-3.25783 5.22967,-9.68776 0,-4.28662 -2.82917,-6.42993 -2.82917,-2.14331 -7.03005,-2.82917 -4.20089,-0.77159 -11.83108,-1.37172 -0.68586,0 -1.45745,0 -0.77159,-0.0857 -1.45745,-0.17147 -0.34293,0 -0.68586,0 -0.34293,-0.0857 -0.68586,-0.0857 -8.65898,-0.68586 -14.66024,-2.48624 -6.00127,-1.88611 -10.0307,-6.94432 -3.94369,-5.05822 -3.94369,-14.48878 0,-9.43057 3.85796,-15.68904 3.85796,-6.25846 11.48814,-9.34483 7.63019,-3.1721 19.11833,-3.1721 6.94433,0 13.2028,1.28599 6.3442,1.28598 12.08827,3.85795 5.74407,2.48624 11.05948,6.3442 v 0 l -10.54509,12.77413 v 0 q -6.68713,-4.28662 -13.20279,-6.42993 -6.42993,-2.14331 -12.60267,-2.14331 -8.91617,0 -13.37425,3.08637 -4.45809,3.00063 -4.45809,9.08764 0,3.60076 2.48624,5.40114 2.57197,1.80038 6.42993,2.40051 3.85796,0.60012 10.97375,1.02879 0.5144,0.0857 1.02879,0.0857 0.60013,0 1.20026,0.0857 0.25719,0 0.51439,0 0.2572,0 0.51439,0.0857 9.34484,0.60013 15.8605,2.48624 6.6014,1.88612 11.05949,7.45872 4.45808,5.57261 4.45808,16.1177 0,9.60203 -4.11515,15.94623 -4.11516,6.25847 -12.43121,9.43057 -8.23031,3.1721 -20.74724,3.1721 z m 100.57662,-57.69792 q 0,-8.74471 -4.71528,-13.54573 -4.62955,-4.88675 -13.20279,-4.88675 -5.31541,0 -10.45936,1.62892 -5.05821,1.62892 -9.0019,4.54382 L 513.62039,148.073 q 5.05822,-6.087 13.28853,-9.43056 8.31604,-3.4293 18.43247,-3.4293 11.05948,0 18.94687,3.94369 7.88738,3.85796 12.00254,11.31668 4.11515,7.37299 4.11515,17.83234 v 57.18353 h -16.63209 z m -21.77603,57.69792 q -16.46063,0 -24.60521,-6.77287 -8.14458,-6.85859 -8.14458,-20.74724 0,-13.20279 7.45872,-19.80419 7.45872,-6.6014 22.54763,-6.6014 h 25.29106 l 1.20026,14.06012 h -26.40559 q -6.85859,0 -10.28789,3.08637 -3.34356,3.00063 -3.34356,9.2591 0,6.77286 4.45808,10.03069 4.54382,3.25783 13.71719,3.25783 10.03069,0 14.91744,-2.14331 4.97248,-2.14331 4.97248,-6.68713 l 1.80038,12.51694 q -2.31477,3.60076 -5.74407,5.91554 -3.34356,2.31477 -7.80165,3.42929 -4.45809,1.20026 -10.03069,1.20026 z M 646.35919,160.5042 h 39.86557 q 5.65834,0 9.94496,-2.6577 4.28662,-2.65771 6.6014,-7.54445 2.40051,-4.88675 2.40051,-11.23095 v 0 q 0,-6.42993 -2.40051,-11.31668 -2.31478,-4.88675 -6.6014,-7.54446 -4.28662,-2.74343 -9.94496,-2.74343 h -39.86557 v -16.63209 h 39.26545 q 11.14521,0 19.63272,4.80101 8.48751,4.71529 13.11706,13.37426 4.71528,8.65898 4.71528,20.06139 v 0 q 0,11.40241 -4.71528,20.06138 -4.62955,8.57325 -13.11706,13.28853 -8.48751,4.71528 -19.63272,4.71528 h -39.26545 z m -9.00191,-59.66976 h 17.48942 v 124.65494 h -17.48942 z m 94.06096,35.66469 h 17.48941 v 88.99025 h -17.48941 z m 48.95321,21.09017 q -2.31477,-2.82917 -5.8298,-4.28662 -3.51503,-1.45745 -8.14458,-1.45745 -8.31605,0 -12.9456,4.62955 -4.54382,4.54382 -4.54382,12.6884 l -1.80038,-17.14649 q 4.11516,-7.97311 10.63082,-12.34547 6.51567,-4.45808 14.40305,-4.45808 6.087,0 10.97375,1.80038 4.97248,1.71465 8.65897,5.14394 z m 51.45194,69.18607 q -12.34547,0 -21.09018,-4.62955 -8.7447,-4.62956 -13.37425,-13.54573 -4.54382,-9.0019 -4.54382,-21.6903 V 176.8791 q 0,-13.2028 4.37235,-22.54763 4.45809,-9.34484 12.85986,-14.23158 8.40178,-4.88675 20.23286,-4.88675 11.14521,0 19.03259,5.57261 7.88739,5.5726 12.00254,16.11769 4.20089,10.54509 4.20089,25.29107 v 5.8298 h -60.01269 v -14.06012 h 43.3806 v 0 q -0.77159,-10.88801 -5.65834,-16.88928 -4.80101,-6.08701 -12.94559,-6.08701 -9.94497,0 -15.43184,6.51567 -5.40114,6.51566 -5.40114,18.43247 v 11.31668 q 0,11.05948 5.8298,16.97502 5.82981,5.91554 16.54636,5.91554 5.31541,0 10.54509,-2.14331 5.22967,-2.14331 9.34483,-6.00127 v 0 l 11.48815,11.48814 v 0 q -6.6014,6.3442 -14.83171,9.85923 -8.23032,3.4293 -16.54636,3.4293 z m 71.59905,-0.85733 q -10.80229,0 -15.8605,-5.91554 -4.97248,-6.00126 -4.97248,-17.66087 v -91.7337 h 17.48941 v 91.90516 q 0,3.25783 1.28599,5.05821 1.28599,1.71465 3.77223,1.71465 h 8.40177 v 16.63209 z m -30.00635,-89.41891 h 40.12277 v 15.77476 h -40.12277 z m 105.12044,32.57832 q 0,-8.74471 -4.71529,-13.54573 -4.62955,-4.88675 -13.20279,-4.88675 -5.31541,0 -10.45936,1.62892 -5.05821,1.62892 -9.0019,4.54382 L 928.38306,148.073 q 5.05821,-6.087 13.28852,-9.43056 8.31605,-3.4293 18.43248,-3.4293 11.05948,0 18.94686,3.94369 7.88738,3.85796 12.00254,11.31668 4.11516,7.37299 4.11516,17.83234 v 57.18353 h -16.63209 z m -21.77604,57.69792 q -16.46062,0 -24.6052,-6.77287 -8.14458,-6.85859 -8.14458,-20.74724 0,-13.20279 7.45872,-19.80419 7.45872,-6.6014 22.54762,-6.6014 h 25.29107 l 1.20025,14.06012 h -26.40558 q -6.8586,0 -10.28789,3.08637 -3.34357,3.00063 -3.34357,9.2591 0,6.77286 4.45809,10.03069 4.54382,3.25783 13.71718,3.25783 10.0307,0 14.91745,-2.14331 4.97248,-2.14331 4.97248,-6.68713 l 1.80038,12.51694 q -2.31478,3.60076 -5.74407,5.91554 -3.34357,2.31477 -7.80166,3.42929 -4.45808,1.20026 -10.03069,1.20026 z M 1063.951,208.85729 h 28.206 q 13.8029,0 21.3474,-7.11579 7.6301,-7.20152 7.6301,-20.23285 v -36.69348 q 0,-13.03133 -7.6301,-20.14712 -7.5445,-7.20152 -21.3474,-7.20152 h -28.206 v -16.63209 h 27.6916 q 15.0032,0 25.634,5.22967 10.6308,5.22968 16.2034,15.26038 5.5726,10.03069 5.5726,24.17654 v 35.32176 q 0,14.14585 -5.5726,24.17654 -5.5726,10.03069 -16.2891,15.26037 -10.6309,5.22968 -25.634,5.22968 h -27.6059 z m -11.8311,-108.02285 h 17.4895 v 124.65494 h -17.4895 z m 157.9317,35.66469 h 17.4037 v 88.99025 h -17.4037 z m -36.1791,54.09715 q 0,9.34484 4.7153,14.48878 4.801,5.05822 13.46,5.05822 8.5732,0 13.2885,-4.54382 4.7153,-4.54382 4.7153,-12.9456 l 1.2002,18.60394 q -2.7434,6.60139 -8.9161,11.05948 -6.1728,4.45809 -15.1747,4.45809 -14.746,0 -22.8048,-9.43057 -7.9731,-9.5163 -7.9731,-26.74852 v -54.09715 h 17.4894 z m 110.7788,36.17909 q -8.316,0 -14.4888,-3.9437 -6.1727,-4.02942 -9.0876,-11.31668 l 1.2002,-18.60393 q 0,5.74407 2.0576,9.7735 2.0576,4.02942 5.9156,6.17273 3.9437,2.14331 9.5163,2.14331 8.6589,0 13.3742,-5.22968 4.801,-5.31541 4.801,-14.91744 v -19.28979 q 0,-9.7735 -4.801,-15.17464 -4.7153,-5.40115 -13.3742,-5.40115 -5.5726,0 -9.5163,2.05758 -3.858,2.05758 -5.9156,6.087 -2.0576,3.9437 -2.0576,9.5163 l -1.8003,-17.14648 q 4.0294,-7.80165 10.5451,-12.00254 6.5156,-4.28662 14.4887,-4.28662 9.4306,0 16.1177,4.28662 6.7729,4.20089 10.2879,12.34547 3.515,8.14458 3.515,19.63272 v 19.37553 q 0,11.31668 -3.6007,19.37553 -3.6008,8.05885 -10.5451,12.34547 -6.9443,4.20089 -16.6321,4.20089 z m -39.8656,-125.94093 h 17.4894 v 124.65494 h -17.4894 z m 117.7231,125.94093 q -7.8874,0 -14.8317,-1.54319 -6.8586,-1.54318 -12.8599,-4.62955 -6.0012,-3.08637 -11.0594,-7.71592 v 0 l 10.3736,-12.77413 v 0 q 7.2015,5.48688 14.3173,8.23032 7.1158,2.74343 14.0601,2.74343 10.3736,0 15.5176,-3.1721 5.2297,-3.25783 5.2297,-9.68776 0,-4.28662 -2.8292,-6.42993 -2.8292,-2.14331 -7.0301,-2.82917 -4.2009,-0.77159 -11.8311,-1.37172 -0.6858,0 -1.4574,0 -0.7716,-0.0857 -1.4575,-0.17147 -0.3429,0 -0.6858,0 -0.3429,-0.0857 -0.6859,-0.0857 -8.6589,-0.68586 -14.6602,-2.48624 -6.0013,-1.88611 -10.0307,-6.94432 -3.9437,-5.05822 -3.9437,-14.48878 0,-9.43057 3.858,-15.68904 3.8579,-6.25846 11.4881,-9.34483 7.6302,-3.1721 19.1183,-3.1721 6.9444,0 13.2028,1.28599 6.3442,1.28598 12.0883,3.85795 5.7441,2.48624 11.0595,6.3442 v 0 l -10.5451,12.77413 v 0 q -6.6871,-4.28662 -13.2028,-6.42993 -6.4299,-2.14331 -12.6027,-2.14331 -8.9161,0 -13.3742,3.08637 -4.4581,3.00063 -4.4581,9.08764 0,3.60076 2.4862,5.40114 2.572,1.80038 6.43,2.40051 3.8579,0.60012 10.9737,1.02879 0.5144,0.0857 1.0288,0.0857 0.6001,0 1.2003,0.0857 0.2572,0 0.5143,0 0.2572,0 0.5144,0.0857 9.3449,0.60013 15.8605,2.48624 6.6014,1.88612 11.0595,7.45872 4.4581,5.57261 4.4581,16.1177 0,9.60203 -4.1151,15.94623 -4.1152,6.25847 -12.4312,9.43057 -8.2304,3.1721 -20.7473,3.1721 z"
       id="text5"
       style="font-size:175.58px;line-height:0;font-family:Bahnschrift;-inkscape-font-specification:Bahnschrift;letter-spacing:-9.24661px;stroke-width:14.6316;fill:#ffffff"
       inkscape:label="Mesa Preta Dubs"
       aria-label="Mesa Preta Dubs" /></g></svg>
